<svg width="28" height="28" viewBox="0 0 28 28" fill="none" xmlns="http://www.w3.org/2000/svg">
<path fill-rule="evenodd" clip-rule="evenodd" d="M13.2989 0.779429C13.7323 0.536252 14.2659 0.536252 14.6986 0.779429C16.8398 1.98131 23.2832 5.59922 25.425 6.80111C25.8583 7.04363 26.1251 7.49301 26.1251 7.97937C26.1251 10.3832 26.1251 17.6183 26.1251 20.0221C26.1251 20.5085 25.8583 20.9578 25.425 21.201C23.2838 22.4029 16.8404 26.0208 14.6986 27.2227C14.2652 27.4658 13.7317 27.4658 13.2989 27.2227C11.1577 26.0208 4.71439 22.4029 2.57254 21.201C2.13985 20.9578 1.87305 20.5091 1.87305 20.0227C1.87305 17.6189 1.87305 10.3839 1.87305 7.98002C1.87305 7.49367 2.13985 7.04428 2.57319 6.80111C4.71373 5.59922 11.1584 1.98131 13.2989 0.779429Z" fill="#283593"/>
<path fill-rule="evenodd" clip-rule="evenodd" d="M2.06708 20.6417C1.89733 20.4145 1.87305 20.1987 1.87305 19.9083C1.87305 17.5185 1.87305 10.3249 1.87305 7.93458C1.87305 7.45071 2.13919 7.00395 2.5713 6.76267C4.70484 5.56778 11.1265 1.97095 13.2601 0.775479C13.6921 0.533541 14.2773 0.538645 14.7094 0.780583C16.843 1.97547 23.243 5.5416 25.3765 6.73649C25.5488 6.83347 25.6803 6.95028 25.7977 7.10413L2.06708 20.6417Z" fill="#5C6BC0"/>
<path fill-rule="evenodd" clip-rule="evenodd" d="M13.9994 5.06476C18.9309 5.06476 22.9344 9.06876 22.9344 14.0008C22.9344 18.9329 18.9309 22.937 13.9994 22.937C9.06802 22.937 5.06445 18.9329 5.06445 14.0008C5.06445 9.06876 9.06802 5.06476 13.9994 5.06476ZM13.9994 9.5328C16.4648 9.5328 18.4669 11.5345 18.4669 14.0008C18.4669 16.4666 16.4648 18.4689 13.9994 18.4689C11.5341 18.4689 9.53198 16.4666 9.53198 14.0008C9.53198 11.5345 11.5334 9.5328 13.9994 9.5328Z" fill="white"/>
<path fill-rule="evenodd" clip-rule="evenodd" d="M25.7963 7.11029C26.1257 7.41858 26.1193 7.88321 26.1193 8.24896C26.1193 10.6713 26.0989 17.5611 26.125 19.9834C26.1276 20.2362 26.0439 20.5023 25.9189 20.7028L13.7393 14.0006L25.7963 7.11029Z" fill="#3949AB"/>
</svg>
