<svg width="28" height="28" viewBox="0 0 28 28" fill="none" xmlns="http://www.w3.org/2000/svg">
<path d="M21.3564 12.6445C22.6896 12.6445 23.7603 13.0049 24.4082 13.4296C24.8331 13.7082 24.9545 13.9181 24.9883 13.9999C24.9546 14.0816 24.8334 14.2915 24.4082 14.5703C23.7603 14.995 22.6897 15.3554 21.3564 15.3554C20.0232 15.3554 18.9526 14.995 18.3047 14.5703C17.8789 14.2911 17.7571 14.0814 17.7236 13.9999C17.7572 13.9184 17.8792 13.7086 18.3047 13.4296C18.9526 13.0049 20.0233 12.6445 21.3564 12.6445Z" fill="url(#paint0_linear_82_1125)" stroke="#24C0FE" stroke-width="5.99985"/>
<path d="M19.0684 3H21.3564C22.6896 3 23.7603 3.36047 24.4082 3.78516C24.8331 4.06375 24.9545 4.27365 24.9883 4.35547C24.9546 4.43718 24.8334 4.64702 24.4082 4.92578C23.7603 5.35049 22.6897 5.71094 21.3564 5.71094H19.0684C18.3197 5.71089 17.7129 5.10414 17.7129 4.35547C17.7129 3.60684 18.3197 3.00005 19.0684 3Z" fill="url(#paint1_linear_82_1125)" stroke="#FF7464" stroke-width="5.99985"/>
<path d="M6.64355 22.2889H8.93164C9.67243 22.2889 10.2726 22.8831 10.2852 23.6209C10.2686 23.6768 10.1724 23.9019 9.69531 24.2147C9.04742 24.6394 7.97677 24.9998 6.64355 24.9998C5.31034 24.9998 4.23969 24.6394 3.5918 24.2147C3.166 23.9355 3.04422 23.7258 3.01074 23.6443C3.04431 23.5628 3.16625 23.353 3.5918 23.074C4.2397 22.6494 5.3104 22.2889 6.64355 22.2889Z" fill="url(#paint2_linear_82_1125)" stroke="#0FD086" stroke-width="5.99985"/>
<path d="M6.64355 12.6445H8.93164C9.68026 12.6445 10.2871 13.2513 10.2871 13.9999C10.2871 14.7486 9.68029 15.3554 8.93164 15.3554H6.64355C5.31034 15.3554 4.23969 14.995 3.5918 14.5703C3.16599 14.2911 3.04421 14.0814 3.01074 13.9999C3.04431 13.9184 3.16626 13.7086 3.5918 13.4296C4.2397 13.0049 5.3104 12.6445 6.64355 12.6445Z" fill="url(#paint3_linear_82_1125)" stroke="#A25CFC" stroke-width="5.99985"/>
<path d="M6.64355 3H8.93164C9.68026 3.00005 10.2871 3.60684 10.2871 4.35547C10.2871 5.10413 9.68029 5.71089 8.93164 5.71094H6.64355C5.31034 5.71094 4.23969 5.35049 3.5918 4.92578C3.166 4.64663 3.04422 4.43694 3.01074 4.35547C3.04431 4.2739 3.16626 4.06414 3.5918 3.78516C4.2397 3.36047 5.3104 3 6.64355 3Z" fill="url(#paint4_linear_82_1125)" stroke="#F25121" stroke-width="5.99985"/>
<defs>
<linearGradient id="paint0_linear_82_1125" x1="21.3564" y1="9.64447" x2="21.3564" y2="18.3556" gradientUnits="userSpaceOnUse">
<stop stop-color="#1ABCFE"/>
<stop offset="1" stop-color="#72D8FE"/>
</linearGradient>
<linearGradient id="paint1_linear_82_1125" x1="21.3564" y1="0" x2="21.3564" y2="8.71111" gradientUnits="userSpaceOnUse">
<stop stop-color="#FF7262"/>
<stop offset="1" stop-color="#F98578"/>
</linearGradient>
<linearGradient id="paint2_linear_82_1125" x1="6.64355" y1="19.2889" x2="6.64355" y2="28" gradientUnits="userSpaceOnUse">
<stop stop-color="#0ACF83"/>
<stop offset="1" stop-color="#64DFB0"/>
</linearGradient>
<linearGradient id="paint3_linear_82_1125" x1="6.64355" y1="9.64447" x2="6.64355" y2="18.3556" gradientUnits="userSpaceOnUse">
<stop stop-color="#A259FF"/>
<stop offset="1" stop-color="#9F7DCB"/>
</linearGradient>
<linearGradient id="paint4_linear_82_1125" x1="6.64355" y1="0" x2="6.64355" y2="8.71111" gradientUnits="userSpaceOnUse">
<stop stop-color="#F24E1E"/>
<stop offset="1" stop-color="#F27A57"/>
</linearGradient>
</defs>
</svg>
