<svg width="27" height="27" viewBox="0 0 27 27" fill="none" xmlns="http://www.w3.org/2000/svg">
<path d="M13.265 0C5.93943 0 0 5.93943 0 13.265C0 19.4808 4.28021 24.6818 10.0505 26.121C9.98856 25.9419 9.94875 25.7341 9.94875 25.4766V23.2093C9.4104 23.2093 8.50842 23.2093 8.2818 23.2093C7.37421 23.2093 6.56731 22.8191 6.17597 22.094C5.74153 21.2881 5.66635 20.0556 4.58967 19.3017C4.27022 19.0508 4.51339 18.7644 4.88155 18.8032C5.56135 18.9955 6.12514 19.462 6.65569 20.1539C7.18411 20.8471 7.43283 21.004 8.41998 21.004C8.8986 21.004 9.61493 20.9764 10.2892 20.8703C10.6518 19.9495 11.2786 19.1016 12.0446 18.7014C7.62737 18.2471 5.51935 16.0495 5.51935 13.066C5.51935 11.7815 6.06652 10.5391 6.99621 9.49222C6.69112 8.45316 6.30751 6.33405 7.11338 5.52708C9.10087 5.52708 10.3025 6.81603 10.591 7.16421C11.5814 6.82485 12.6692 6.6325 13.8122 6.6325C14.9574 6.6325 16.0495 6.82485 17.0422 7.16639C17.3274 6.82041 18.5301 5.52708 20.522 5.52708C21.3313 6.33514 20.9432 8.46307 20.6348 9.49995C21.559 10.5446 22.1028 11.7838 22.1028 13.066C22.1028 16.0474 19.9981 18.2438 15.5875 18.7004C16.8012 19.3337 17.6867 21.1135 17.6867 22.4543V25.4766C17.6867 25.5915 17.6612 25.6744 17.6479 25.7728C22.8169 23.961 26.53 19.053 26.53 13.265C26.53 5.93943 20.5906 0 13.265 0Z" fill="black"/>
</svg>
