<svg width="28" height="28" viewBox="0 0 28 28" fill="none" xmlns="http://www.w3.org/2000/svg">
<mask id="mask0_82_1076" style="mask-type:luminance" maskUnits="userSpaceOnUse" x="2" y="0" width="20" height="28">
<path d="M2.65039 0.759399H21.5784V27.2474H2.65039V0.759399Z" fill="white"/>
</mask>
<g mask="url(#mask0_82_1076)">
<path d="M21.5659 6.43545V26.7745C21.5659 27.0346 21.3531 27.2474 21.0931 27.2474H3.12333C2.86323 27.2474 2.65039 27.0346 2.65039 26.7745V1.23241C2.65039 0.972243 2.86323 0.759399 3.12333 0.759399H15.8913L21.5659 6.43545Z" fill="#F0F0F0"/>
</g>
<path d="M21.5669 16.3685V24.8825H5.4887C4.96851 24.8825 4.54297 24.4568 4.54297 23.9365V17.3145C4.54297 16.7942 4.96851 16.3685 5.4887 16.3685H21.5669Z" fill="#D2D2D2"/>
<mask id="mask1_82_1076" style="mask-type:luminance" maskUnits="userSpaceOnUse" x="4" y="15" width="22" height="10">
<path d="M4.53613 15.8855H25.3544V24.4162H4.53613V15.8855Z" fill="white"/>
</mask>
<g mask="url(#mask1_82_1076)">
<path d="M24.4042 24.4097H5.4887C4.96618 24.4097 4.54297 23.9864 4.54297 23.4638V16.8418C4.54297 16.3191 4.96618 15.8958 5.4887 15.8958H24.4042C24.9268 15.8958 25.35 16.3191 25.35 16.8418V23.4638C25.35 23.9864 24.9268 24.4097 24.4042 24.4097Z" fill="#00A0C8"/>
</g>
<path d="M17.3108 22.9904C17.0493 22.9904 16.8379 22.7785 16.8379 22.5174V17.7873C16.8379 17.5262 17.0493 17.3143 17.3108 17.3143C17.5723 17.3143 17.7837 17.5262 17.7837 17.7873V22.5174C17.7837 22.7785 17.5723 22.9904 17.3108 22.9904Z" fill="#F0F0F0"/>
<path d="M18.7291 18.2604H15.8918C15.6303 18.2604 15.4189 18.0485 15.4189 17.7873C15.4189 17.5262 15.6303 17.3143 15.8918 17.3143H18.7291C18.9907 17.3143 19.2021 17.5262 19.2021 17.7873C19.2021 18.0485 18.9907 18.2604 18.7291 18.2604Z" fill="#F0F0F0"/>
<mask id="mask2_82_1076" style="mask-type:luminance" maskUnits="userSpaceOnUse" x="15" y="0" width="7" height="7">
<path d="M15.8857 0.759399H21.5791V6.43997H15.8857V0.759399Z" fill="white"/>
</mask>
<g mask="url(#mask2_82_1076)">
<path d="M21.5672 6.43545H16.3655C16.1045 6.43545 15.8926 6.22356 15.8926 5.96244V0.759399L21.5672 6.43545Z" fill="#D2D2D2"/>
</g>
<path d="M23.4577 22.9904H20.6204C20.3588 22.9904 20.1475 22.7785 20.1475 22.5174V17.7873C20.1475 17.5262 20.3588 17.3143 20.6204 17.3143C20.8819 17.3143 21.0933 17.5262 21.0933 17.7873V22.0444H23.4577C23.7192 22.0444 23.9306 22.2563 23.9306 22.5174C23.9306 22.7785 23.7192 22.9904 23.4577 22.9904Z" fill="#F0F0F0"/>
<path d="M14.0006 22.9904C13.7391 22.9904 13.5278 22.7785 13.5278 22.5174V19.4949L12.9872 20.3955C12.8165 20.6807 12.347 20.6807 12.1763 20.3955L11.6362 19.4949V22.5174C11.6362 22.7785 11.4248 22.9904 11.1633 22.9904C10.9018 22.9904 10.6904 22.7785 10.6904 22.5174V17.7873C10.6904 17.5745 10.8323 17.3881 11.0371 17.3314C11.2399 17.276 11.4598 17.3612 11.5686 17.5438L12.582 19.2328L13.5954 17.5438C13.7041 17.3612 13.9241 17.2751 14.1269 17.3314C14.3317 17.3881 14.4736 17.5745 14.4736 17.7873V22.5174C14.4736 22.7785 14.2622 22.9904 14.0006 22.9904Z" fill="#F0F0F0"/>
<path d="M6.4338 22.9904C6.17232 22.9904 5.96094 22.7785 5.96094 22.5174V17.7873C5.96094 17.5262 6.17232 17.3143 6.4338 17.3143C6.69528 17.3143 6.90667 17.5262 6.90667 17.7873V22.5174C6.90667 22.7785 6.69528 22.9904 6.4338 22.9904Z" fill="#F0F0F0"/>
<path d="M9.27169 22.9904C9.01014 22.9904 8.79883 22.7785 8.79883 22.5174V17.7873C8.79883 17.5262 9.01014 17.3143 9.27169 17.3143C9.53317 17.3143 9.74456 17.5262 9.74456 17.7873V22.5174C9.74456 22.7785 9.53317 22.9904 9.27169 22.9904Z" fill="#F0F0F0"/>
<path d="M9.27114 20.6255H6.4338C6.17232 20.6255 5.96094 20.4136 5.96094 20.1525C5.96094 19.8914 6.17232 19.6795 6.4338 19.6795H9.27114C9.53261 19.6795 9.744 19.8914 9.744 20.1525C9.744 20.4136 9.53261 20.6255 9.27114 20.6255Z" fill="#F0F0F0"/>
<path d="M6.90754 12.5844C6.77177 12.5844 6.63753 12.5262 6.5434 12.4142L4.17893 9.57611C4.0328 9.40068 4.0328 9.14569 4.17893 8.97069L6.5434 6.1327C6.71081 5.93218 7.0078 5.90469 7.20971 6.07218C7.41023 6.23959 7.43714 6.5376 7.27023 6.73812L5.15827 9.27344L7.27067 11.8087C7.43809 12.0093 7.41067 12.3077 7.21015 12.4747C7.12126 12.5485 7.01437 12.5844 6.90754 12.5844Z" fill="#0A5078"/>
<path d="M12.5813 12.5844C12.4744 12.5844 12.3675 12.5485 12.2786 12.4747C12.0781 12.3072 12.0512 12.0093 12.2181 11.8087L14.3305 9.27344L12.2181 6.73812C12.0507 6.5376 12.0781 6.23915 12.2786 6.07218C12.4801 5.90469 12.778 5.93218 12.9449 6.1327L15.3094 8.97069C15.4555 9.1462 15.4555 9.40111 15.3094 9.57611L12.9449 12.4142C12.8513 12.5262 12.717 12.5844 12.5813 12.5844Z" fill="#0A5078"/>
<path d="M9.2721 12.5844C9.24614 12.5844 9.22055 12.5825 9.19408 12.5778C8.93639 12.5348 8.76234 12.2912 8.80536 12.0334L9.75116 6.35736C9.79418 6.0996 10.0373 5.92409 10.295 5.96856C10.5527 6.01159 10.7267 6.2552 10.6837 6.51296L9.73789 12.189C9.69961 12.4203 9.49909 12.5844 9.2721 12.5844Z" fill="#0A5078"/>
</svg>
